<svg xmlns="http://www.w3.org/2000/svg" width="34" height="35" viewBox="0 0 34 35" fill="none">
  <path fill-rule="evenodd" clip-rule="evenodd" d="M3.88889 35H32.4074C33.123 35 33.7037 34.4193 33.7037 33.7037V10.3704C33.7037 9.65481 33.123 9.07407 32.4074 9.07407H27.2222C26.5067 9.07407 25.9259 9.65481 25.9259 10.3704V32.4074H23.3333V16.8519C23.3333 16.1363 22.7526 15.5556 22.037 15.5556H16.8519C16.1363 15.5556 15.5556 16.1363 15.5556 16.8519V32.4074H12.963V22.0526C12.963 21.337 12.3822 20.7563 11.6667 20.7563H6.48148C5.76593 20.7563 5.18519 21.337 5.18519 22.0526V32.4074H3.88889C3.54537 32.4074 3.21482 32.2713 2.97241 32.0276C2.7287 31.7852 2.59259 31.4546 2.59259 31.1111V2.59259C2.59259 1.87704 2.01185 1.2963 1.2963 1.2963C0.580741 1.2963 0 1.87704 0 2.59259V31.1111C0 32.143 0.40963 33.132 1.13944 33.8606C1.86796 34.5904 2.85704 35 3.88889 35Z" fill="white"/>
  <path fill-rule="evenodd" clip-rule="evenodd" d="M9.07796 2.59259H9.07407C6.92741 2.59259 5.18519 4.33481 5.18519 6.48148C5.18519 8.62815 6.92741 10.3704 9.07407 10.3704H11.6667C12.3822 10.3704 12.963 10.9511 12.963 11.6667C12.963 12.3822 12.3822 12.963 11.6667 12.963H7.77778C7.06222 12.963 6.48148 13.5437 6.48148 14.2593C6.48148 14.9748 7.06222 15.5556 7.77778 15.5556H9.07796V16.8519C9.07796 17.5674 9.66 18.1481 10.3743 18.1481C11.0898 18.1481 11.6706 17.5674 11.6706 16.8519V15.5556C13.8159 15.553 15.5556 13.812 15.5556 11.6667C15.5556 9.52 13.8133 7.77778 11.6667 7.77778H9.07407C8.35852 7.77778 7.77778 7.19704 7.77778 6.48148C7.77778 5.76593 8.35852 5.18518 9.07407 5.18518H12.963C13.6785 5.18518 14.2593 4.60444 14.2593 3.88889C14.2593 3.17333 13.6785 2.59259 12.963 2.59259H11.6706V1.2963C11.6706 0.580741 11.0898 0 10.3743 0C9.66 0 9.07796 0.580741 9.07796 1.2963V2.59259Z" fill="white"/>
</svg>