<svg xmlns="http://www.w3.org/2000/svg" width="18" height="18" viewBox="0 0 18 18" fill="none">
  <path d="M1.89956 13.2107C1.62697 13.0553 1.40024 12.8307 1.24229 12.5596C1.08434 12.2884 1.00076 11.9804 1 11.6667V2.77778C1 1.8 1.8 1 2.77778 1H11.6667C12.3333 1 12.696 1.34222 13 1.88889M4.55556 6.92622C4.55556 6.29748 4.80532 5.69449 5.24991 5.24991C5.69449 4.80532 6.29748 4.55556 6.92622 4.55556H14.6293C14.9407 4.55556 15.2489 4.61687 15.5365 4.73601C15.8242 4.85515 16.0855 5.02977 16.3056 5.24991C16.5258 5.47004 16.7004 5.73138 16.8195 6.01901C16.9387 6.30663 17 6.6149 17 6.92622V14.6293C17 14.9407 16.9387 15.2489 16.8195 15.5365C16.7004 15.8242 16.5258 16.0855 16.3056 16.3056C16.0855 16.5258 15.8242 16.7004 15.5365 16.8195C15.2489 16.9387 14.9407 17 14.6293 17H6.92622C6.6149 17 6.30663 16.9387 6.01901 16.8195C5.73138 16.7004 5.47004 16.5258 5.24991 16.3056C5.02977 16.0855 4.85515 15.8242 4.73601 15.5365C4.61687 15.2489 4.55556 14.9407 4.55556 14.6293V6.92622Z" stroke="white" stroke-opacity="0.5" stroke-width="2" stroke-linecap="round" stroke-linejoin="round"/>
</svg>