<svg xmlns="http://www.w3.org/2000/svg" width="40" height="37" viewBox="0 0 40 37" fill="none">
  <path d="M38.5 31V32C39.0523 32 39.5 31.5523 39.5 31H38.5ZM27.25 31H26.25C26.25 31.5523 26.6977 32 27.25 32V31ZM27.25 19.75H28.25C28.25 19.1977 27.8023 18.75 27.25 18.75V19.75ZM12.25 19.75V18.75C11.6977 18.75 11.25 19.1977 11.25 19.75H12.25ZM12.25 31V32C12.8023 32 13.25 31.5523 13.25 31H12.25ZM1 31H0C0 31.5523 0.447715 32 1 32L1 31ZM1 1V0C0.447715 0 0 0.447715 0 1L1 1ZM38.5 1H39.5C39.5 0.447715 39.0523 0 38.5 0V1ZM18.75 31.625C18.75 32.1773 19.1977 32.625 19.75 32.625C20.3023 32.625 20.75 32.1773 20.75 31.625H18.75ZM27.25 36V37C27.8023 37 28.25 36.5523 28.25 36H27.25ZM12.25 36H11.25C11.25 36.5523 11.6977 37 12.25 37V36ZM14.75 19.75H13.75C13.75 20.3023 14.1977 20.75 14.75 20.75V19.75ZM24.75 19.75V20.75C25.3023 20.75 25.75 20.3023 25.75 19.75H24.75ZM37.5 8.5V31H39.5V8.5H37.5ZM38.5 30H27.25V32H38.5V30ZM28.25 31V19.75H26.25V31H28.25ZM27.25 18.75H12.25V20.75H27.25V18.75ZM11.25 19.75V31H13.25V19.75H11.25ZM12.25 30H1V32H12.25V30ZM2 31V8.5H0V31H2ZM1 9.5H38.5V7.5H1V9.5ZM1 2H38.5V0H1V2ZM37.5 1V8.5H39.5V1H37.5ZM2 8.5V1H0V8.5H2ZM6.25 4.75C6.25 4.88807 6.13807 5 6 5V7C7.24264 7 8.25 5.99264 8.25 4.75H6.25ZM6 5C5.86193 5 5.75 4.88807 5.75 4.75H3.75C3.75 5.99264 4.75736 7 6 7V5ZM5.75 4.75C5.75 4.61193 5.86193 4.5 6 4.5V2.5C4.75736 2.5 3.75 3.50736 3.75 4.75H5.75ZM6 4.5C6.13807 4.5 6.25 4.61193 6.25 4.75H8.25C8.25 3.50736 7.24264 2.5 6 2.5V4.5ZM11.25 4.75C11.25 4.88807 11.1381 5 11 5V7C12.2426 7 13.25 5.99264 13.25 4.75H11.25ZM11 5C10.8619 5 10.75 4.88807 10.75 4.75H8.75C8.75 5.99264 9.75736 7 11 7V5ZM10.75 4.75C10.75 4.61193 10.8619 4.5 11 4.5V2.5C9.75736 2.5 8.75 3.50736 8.75 4.75H10.75ZM11 4.5C11.1381 4.5 11.25 4.61193 11.25 4.75H13.25C13.25 3.50736 12.2426 2.5 11 2.5V4.5ZM16.25 4.75C16.25 4.88807 16.1381 5 16 5V7C17.2426 7 18.25 5.99264 18.25 4.75H16.25ZM16 5C15.8619 5 15.75 4.88807 15.75 4.75H13.75C13.75 5.99264 14.7574 7 16 7V5ZM15.75 4.75C15.75 4.61193 15.8619 4.5 16 4.5V2.5C14.7574 2.5 13.75 3.50736 13.75 4.75H15.75ZM16 4.5C16.1381 4.5 16.25 4.61193 16.25 4.75H18.25C18.25 3.50736 17.2426 2.5 16 2.5V4.5ZM21.25 26.625C21.25 27.4534 20.5784 28.125 19.75 28.125V30.125C21.683 30.125 23.25 28.558 23.25 26.625H21.25ZM19.75 28.125C18.9216 28.125 18.25 27.4534 18.25 26.625H16.25C16.25 28.558 17.817 30.125 19.75 30.125V28.125ZM18.25 26.625C18.25 25.7966 18.9216 25.125 19.75 25.125V23.125C17.817 23.125 16.25 24.692 16.25 26.625H18.25ZM19.75 25.125C20.5784 25.125 21.25 25.7966 21.25 26.625H23.25C23.25 24.692 21.683 23.125 19.75 23.125V25.125ZM18.75 29.125V31.625H20.75V29.125H18.75ZM26.25 19.75V36H28.25V19.75H26.25ZM27.25 35H12.25V37H27.25V35ZM13.25 36V19.75H11.25V36H13.25ZM19.75 11.25C16.4363 11.25 13.75 13.9363 13.75 17.25H15.75C15.75 15.0409 17.5409 13.25 19.75 13.25V11.25ZM13.75 17.25V19.75H15.75V17.25H13.75ZM14.75 20.75H24.75V18.75H14.75V20.75ZM25.75 19.75V17.25H23.75V19.75H25.75ZM25.75 17.25C25.75 13.9363 23.0637 11.25 19.75 11.25V13.25C21.9591 13.25 23.75 15.0409 23.75 17.25H25.75Z" fill="white"/>
</svg>