<svg xmlns="http://www.w3.org/2000/svg" width="43" height="42" viewBox="0 0 43 42" fill="none">
  <mask id="path-1-outside-1_284_98" maskUnits="userSpaceOnUse" x="0" y="0" width="43" height="42" fill="black">
    <rect fill="white" width="43" height="42"/>
    <path d="M13.5267 12.7837C13.1809 12.7837 12.9014 12.5042 12.9014 12.1585C12.9014 11.8128 13.1809 11.5333 13.5267 11.5333C13.6958 11.5333 13.8503 11.5995 13.968 11.7172C14.2549 12.004 14.7183 12.004 15.0051 11.7172C15.292 11.4303 15.292 10.9669 15.0051 10.68C14.7918 10.4667 14.5344 10.3196 14.2622 10.2093V9.94447C14.2622 9.53991 13.9312 9.2089 13.5267 9.2089C13.1221 9.2089 12.7911 9.53991 12.7911 9.94447V10.2166C12.004 10.5182 11.4303 11.2685 11.4303 12.1659C11.4303 13.3207 12.3718 14.2622 13.5267 14.2622C13.8724 14.2622 14.1519 14.5417 14.1519 14.8875C14.1519 15.2332 13.8724 15.5127 13.5267 15.5127C13.3575 15.5127 13.203 15.4465 13.0853 15.3288C12.7985 15.0419 12.335 15.0419 12.0482 15.3288C11.7613 15.6157 11.7613 16.0791 12.0482 16.3659C12.2615 16.5793 12.5189 16.7337 12.7911 16.8367V17.1015C12.7911 17.5061 13.1221 17.8371 13.5267 17.8371C13.9312 17.8371 14.2622 17.5061 14.2622 17.1015V16.8294C15.0566 16.5278 15.623 15.7775 15.623 14.8801C15.623 13.7253 14.6815 12.7837 13.5267 12.7837Z"/>
    <path d="M30.7389 23.8687C30.452 23.5818 30.0695 23.4274 29.6723 23.4274C29.2678 23.4274 28.8853 23.5892 28.5984 23.8687L26.274 26.1931C25.1927 27.2744 25.1927 29.0324 26.274 30.1136C26.6491 30.4888 27.1052 30.7389 27.6054 30.8566L27.5318 31.2243C27.4288 31.7466 27.5612 32.2689 27.9143 32.7028C28.3262 33.2104 29.0029 33.5267 29.6723 33.5267C30.3417 33.5267 31.0184 33.2104 31.4303 32.7028C31.7834 32.2689 31.9231 31.7466 31.8128 31.217L31.7393 30.8492C32.2321 30.7315 32.6955 30.4814 33.0706 30.1063C34.1519 29.025 34.1519 27.267 33.0706 26.1857L30.7462 23.8613L30.7389 23.8687ZM32.0261 29.0765C31.7393 29.3634 31.3494 29.4958 30.9448 29.4443C30.7095 29.4149 30.4741 29.5031 30.3123 29.6723C30.1504 29.8488 30.0842 30.0842 30.1284 30.3196L30.3711 31.5112C30.3711 31.5112 30.3932 31.6363 30.2902 31.7687C30.0107 32.107 29.3266 32.107 29.0471 31.7687C28.9368 31.6363 28.9588 31.5406 28.9662 31.5112L29.2089 30.3196C29.253 30.0842 29.1868 29.8488 29.025 29.6723C28.8853 29.5178 28.6867 29.4369 28.4881 29.4369C28.1644 29.4369 27.7525 29.5178 27.3112 29.0691C27.0684 28.8191 26.9287 28.4954 26.9287 28.1497C26.9287 27.804 27.0684 27.4803 27.3112 27.2302L29.6355 24.9058C29.6355 24.9058 29.6723 24.9058 29.7017 24.9058L32.0261 27.2302C32.5337 27.7378 32.5337 28.5616 32.0261 29.0691V29.0765Z"/>
    <path d="M22.3314 13.5193C22.3314 8.66459 18.3814 4.7146 13.5267 4.7146C8.67194 4.7146 4.72196 8.66459 4.72196 13.5193C4.72196 18.374 8.67194 22.324 13.5267 22.324C18.3814 22.324 22.3314 18.374 22.3314 13.5193ZM13.5267 20.8529C9.48106 20.8529 6.19308 17.5649 6.19308 13.5193C6.19308 9.47371 9.48106 6.18573 13.5267 6.18573C17.5723 6.18573 20.8602 9.47371 20.8602 13.5193C20.8602 17.5649 17.5723 20.8529 13.5267 20.8529Z"/>
    <path d="M29.665 15.954C28.2306 15.954 26.8772 16.2483 25.5899 16.6896C25.8621 15.6524 26.0533 14.6006 26.0533 13.5267C26.0533 6.61971 20.4336 1 13.5267 1C6.61971 1 1 6.61236 1 13.5193C1 20.4263 6.61971 26.046 13.5267 26.046C14.9022 26.046 16.2777 25.8032 17.5796 25.3619C17.3222 26.3623 17.1383 27.3921 17.1383 28.4733C17.1383 35.3803 22.758 41 29.665 41C36.5719 41 42.1916 35.3803 42.1916 28.4733C42.1916 21.5664 36.5719 15.9467 29.665 15.9467V15.954ZM37.9474 35.726L35.726 33.5046C36.7117 32.313 37.3516 30.8419 37.4987 29.2163H40.6396C40.4704 31.7025 39.4921 33.9533 37.9401 35.726H37.9474ZM21.8238 29.2163C21.9783 30.8419 22.6109 32.313 23.5965 33.5046L21.3751 35.726C19.8231 33.9533 18.8448 31.7098 18.6756 29.2163H21.8238ZM21.3825 21.2354L23.6039 23.4568C22.6182 24.6484 21.9783 26.1195 21.8312 27.7451H18.6903C18.8669 25.1265 19.7495 23.1037 21.3899 21.2354H21.3825ZM28.9294 20.6396C27.3038 20.794 25.8327 21.4266 24.641 22.4123L22.4196 20.1909C24.1924 18.6388 26.4358 17.6605 28.9294 17.4914V20.6396ZM29.665 34.9242C26.1122 34.9242 23.2214 32.0335 23.2214 28.4807C23.2214 24.9279 26.1122 22.0371 29.665 22.0371C33.2177 22.0371 36.1085 24.9279 36.1085 28.4807C36.1085 32.0335 33.2177 34.9242 29.665 34.9242ZM34.6889 22.4196C33.4972 21.434 32.0261 20.794 30.4005 20.6469V17.5061C32.8867 17.6752 35.1376 18.6536 36.9103 20.2056L34.6889 22.427V22.4196ZM24.641 34.5491C25.8327 35.5348 27.3038 36.1747 28.9294 36.3218V39.4627C26.4432 39.2935 24.1924 38.3152 22.4196 36.7631L24.641 34.5417V34.5491ZM30.4005 36.3218C32.0261 36.1673 33.4972 35.5348 34.6889 34.5491L36.9103 36.7705C35.1376 38.3225 32.8941 39.3008 30.4005 39.47V36.3218ZM37.5061 27.7451C37.3516 26.1195 36.719 24.6484 35.7334 23.4568L37.9548 21.2354C39.5068 23.0081 40.4851 25.2516 40.6543 27.7451H37.5061ZM13.5267 24.5822C7.42883 24.5822 2.47113 19.6245 2.47113 13.5267C2.47113 7.42883 7.42883 2.46377 13.5267 2.46377C19.6245 2.46377 24.5822 7.42148 24.5822 13.5193C24.5822 14.8727 24.3248 16.1894 23.8393 17.4546C21.2427 18.8301 19.367 20.7352 18.1607 23.5451C16.7117 24.2144 15.1228 24.5748 13.5267 24.5748V24.5822Z"/>
    <path d="M28.694 5.96506C28.2894 5.96506 27.9584 6.29606 27.9584 6.70063C27.9584 7.10519 28.2894 7.43619 28.694 7.43619H30.4888C32.3792 7.43619 33.9165 8.97352 33.9165 10.8639V11.1214L33.6664 10.8713C33.3795 10.5844 32.9161 10.5844 32.6293 10.8713C32.3424 11.1581 32.3424 11.6216 32.6293 11.9084L34.1372 13.4163C34.424 13.7032 34.8875 13.7032 35.1817 13.4163L36.6896 11.9084C36.9765 11.6216 36.9765 11.1581 36.6896 10.8713C36.4027 10.5844 35.9393 10.5844 35.6524 10.8713L35.4024 11.1214V10.8639C35.4024 8.1644 33.203 5.96506 30.5035 5.96506H28.694Z"/>
    <path d="M9.52519 31.1361C9.6723 31.2832 9.85619 31.3494 10.0474 31.3494C10.2387 31.3494 10.4226 31.2758 10.5697 31.1361C10.8566 30.8492 10.8566 30.3858 10.5697 30.0989L9.06178 28.591C8.78227 28.3115 8.2968 28.3115 8.01728 28.591L6.50937 30.0989C6.2225 30.3858 6.2225 30.8492 6.50937 31.1361C6.79625 31.4229 7.25965 31.4229 7.54652 31.1361L7.79661 30.886V31.1434C7.79661 33.843 9.99595 36.0423 12.6955 36.0423H14.4903C14.8948 36.0423 15.2258 35.7113 15.2258 35.3067C15.2258 34.9022 14.8948 34.5712 14.4903 34.5712H12.6955C10.8051 34.5712 9.26774 33.0338 9.26774 31.1434V30.886L9.51783 31.1361H9.52519Z"/>
  </mask>
  <path d="M13.5267 12.7837C13.1809 12.7837 12.9014 12.5042 12.9014 12.1585C12.9014 11.8128 13.1809 11.5333 13.5267 11.5333C13.6958 11.5333 13.8503 11.5995 13.968 11.7172C14.2549 12.004 14.7183 12.004 15.0051 11.7172C15.292 11.4303 15.292 10.9669 15.0051 10.68C14.7918 10.4667 14.5344 10.3196 14.2622 10.2093V9.94447C14.2622 9.53991 13.9312 9.2089 13.5267 9.2089C13.1221 9.2089 12.7911 9.53991 12.7911 9.94447V10.2166C12.004 10.5182 11.4303 11.2685 11.4303 12.1659C11.4303 13.3207 12.3718 14.2622 13.5267 14.2622C13.8724 14.2622 14.1519 14.5417 14.1519 14.8875C14.1519 15.2332 13.8724 15.5127 13.5267 15.5127C13.3575 15.5127 13.203 15.4465 13.0853 15.3288C12.7985 15.0419 12.335 15.0419 12.0482 15.3288C11.7613 15.6157 11.7613 16.0791 12.0482 16.3659C12.2615 16.5793 12.5189 16.7337 12.7911 16.8367V17.1015C12.7911 17.5061 13.1221 17.8371 13.5267 17.8371C13.9312 17.8371 14.2622 17.5061 14.2622 17.1015V16.8294C15.0566 16.5278 15.623 15.7775 15.623 14.8801C15.623 13.7253 14.6815 12.7837 13.5267 12.7837Z" fill="white"/>
  <path d="M30.7389 23.8687C30.452 23.5818 30.0695 23.4274 29.6723 23.4274C29.2678 23.4274 28.8853 23.5892 28.5984 23.8687L26.274 26.1931C25.1927 27.2744 25.1927 29.0324 26.274 30.1136C26.6491 30.4888 27.1052 30.7389 27.6054 30.8566L27.5318 31.2243C27.4288 31.7466 27.5612 32.2689 27.9143 32.7028C28.3262 33.2104 29.0029 33.5267 29.6723 33.5267C30.3417 33.5267 31.0184 33.2104 31.4303 32.7028C31.7834 32.2689 31.9231 31.7466 31.8128 31.217L31.7393 30.8492C32.2321 30.7315 32.6955 30.4814 33.0706 30.1063C34.1519 29.025 34.1519 27.267 33.0706 26.1857L30.7462 23.8613L30.7389 23.8687ZM32.0261 29.0765C31.7393 29.3634 31.3494 29.4958 30.9448 29.4443C30.7095 29.4149 30.4741 29.5031 30.3123 29.6723C30.1504 29.8488 30.0842 30.0842 30.1284 30.3196L30.3711 31.5112C30.3711 31.5112 30.3932 31.6363 30.2902 31.7687C30.0107 32.107 29.3266 32.107 29.0471 31.7687C28.9368 31.6363 28.9588 31.5406 28.9662 31.5112L29.2089 30.3196C29.253 30.0842 29.1868 29.8488 29.025 29.6723C28.8853 29.5178 28.6867 29.4369 28.4881 29.4369C28.1644 29.4369 27.7525 29.5178 27.3112 29.0691C27.0684 28.8191 26.9287 28.4954 26.9287 28.1497C26.9287 27.804 27.0684 27.4803 27.3112 27.2302L29.6355 24.9058C29.6355 24.9058 29.6723 24.9058 29.7017 24.9058L32.0261 27.2302C32.5337 27.7378 32.5337 28.5616 32.0261 29.0691V29.0765Z" fill="white"/>
  <path d="M22.3314 13.5193C22.3314 8.66459 18.3814 4.7146 13.5267 4.7146C8.67194 4.7146 4.72196 8.66459 4.72196 13.5193C4.72196 18.374 8.67194 22.324 13.5267 22.324C18.3814 22.324 22.3314 18.374 22.3314 13.5193ZM13.5267 20.8529C9.48106 20.8529 6.19308 17.5649 6.19308 13.5193C6.19308 9.47371 9.48106 6.18573 13.5267 6.18573C17.5723 6.18573 20.8602 9.47371 20.8602 13.5193C20.8602 17.5649 17.5723 20.8529 13.5267 20.8529Z" fill="white"/>
  <path d="M29.665 15.954C28.2306 15.954 26.8772 16.2483 25.5899 16.6896C25.8621 15.6524 26.0533 14.6006 26.0533 13.5267C26.0533 6.61971 20.4336 1 13.5267 1C6.61971 1 1 6.61236 1 13.5193C1 20.4263 6.61971 26.046 13.5267 26.046C14.9022 26.046 16.2777 25.8032 17.5796 25.3619C17.3222 26.3623 17.1383 27.3921 17.1383 28.4733C17.1383 35.3803 22.758 41 29.665 41C36.5719 41 42.1916 35.3803 42.1916 28.4733C42.1916 21.5664 36.5719 15.9467 29.665 15.9467V15.954ZM37.9474 35.726L35.726 33.5046C36.7117 32.313 37.3516 30.8419 37.4987 29.2163H40.6396C40.4704 31.7025 39.4921 33.9533 37.9401 35.726H37.9474ZM21.8238 29.2163C21.9783 30.8419 22.6109 32.313 23.5965 33.5046L21.3751 35.726C19.8231 33.9533 18.8448 31.7098 18.6756 29.2163H21.8238ZM21.3825 21.2354L23.6039 23.4568C22.6182 24.6484 21.9783 26.1195 21.8312 27.7451H18.6903C18.8669 25.1265 19.7495 23.1037 21.3899 21.2354H21.3825ZM28.9294 20.6396C27.3038 20.794 25.8327 21.4266 24.641 22.4123L22.4196 20.1909C24.1924 18.6388 26.4358 17.6605 28.9294 17.4914V20.6396ZM29.665 34.9242C26.1122 34.9242 23.2214 32.0335 23.2214 28.4807C23.2214 24.9279 26.1122 22.0371 29.665 22.0371C33.2177 22.0371 36.1085 24.9279 36.1085 28.4807C36.1085 32.0335 33.2177 34.9242 29.665 34.9242ZM34.6889 22.4196C33.4972 21.434 32.0261 20.794 30.4005 20.6469V17.5061C32.8867 17.6752 35.1376 18.6536 36.9103 20.2056L34.6889 22.427V22.4196ZM24.641 34.5491C25.8327 35.5348 27.3038 36.1747 28.9294 36.3218V39.4627C26.4432 39.2935 24.1924 38.3152 22.4196 36.7631L24.641 34.5417V34.5491ZM30.4005 36.3218C32.0261 36.1673 33.4972 35.5348 34.6889 34.5491L36.9103 36.7705C35.1376 38.3225 32.8941 39.3008 30.4005 39.47V36.3218ZM37.5061 27.7451C37.3516 26.1195 36.719 24.6484 35.7334 23.4568L37.9548 21.2354C39.5068 23.0081 40.4851 25.2516 40.6543 27.7451H37.5061ZM13.5267 24.5822C7.42883 24.5822 2.47113 19.6245 2.47113 13.5267C2.47113 7.42883 7.42883 2.46377 13.5267 2.46377C19.6245 2.46377 24.5822 7.42148 24.5822 13.5193C24.5822 14.8727 24.3248 16.1894 23.8393 17.4546C21.2427 18.8301 19.367 20.7352 18.1607 23.5451C16.7117 24.2144 15.1228 24.5748 13.5267 24.5748V24.5822Z" fill="white"/>
  <path d="M28.694 5.96506C28.2894 5.96506 27.9584 6.29606 27.9584 6.70063C27.9584 7.10519 28.2894 7.43619 28.694 7.43619H30.4888C32.3792 7.43619 33.9165 8.97352 33.9165 10.8639V11.1214L33.6664 10.8713C33.3795 10.5844 32.9161 10.5844 32.6293 10.8713C32.3424 11.1581 32.3424 11.6216 32.6293 11.9084L34.1372 13.4163C34.424 13.7032 34.8875 13.7032 35.1817 13.4163L36.6896 11.9084C36.9765 11.6216 36.9765 11.1581 36.6896 10.8713C36.4027 10.5844 35.9393 10.5844 35.6524 10.8713L35.4024 11.1214V10.8639C35.4024 8.1644 33.203 5.96506 30.5035 5.96506H28.694Z" fill="white"/>
  <path d="M9.52519 31.1361C9.6723 31.2832 9.85619 31.3494 10.0474 31.3494C10.2387 31.3494 10.4226 31.2758 10.5697 31.1361C10.8566 30.8492 10.8566 30.3858 10.5697 30.0989L9.06178 28.591C8.78227 28.3115 8.2968 28.3115 8.01728 28.591L6.50937 30.0989C6.2225 30.3858 6.2225 30.8492 6.50937 31.1361C6.79625 31.4229 7.25965 31.4229 7.54652 31.1361L7.79661 30.886V31.1434C7.79661 33.843 9.99595 36.0423 12.6955 36.0423H14.4903C14.8948 36.0423 15.2258 35.7113 15.2258 35.3067C15.2258 34.9022 14.8948 34.5712 14.4903 34.5712H12.6955C10.8051 34.5712 9.26774 33.0338 9.26774 31.1434V30.886L9.51783 31.1361H9.52519Z" fill="white"/>
  <path d="M13.5267 12.7837C13.1809 12.7837 12.9014 12.5042 12.9014 12.1585C12.9014 11.8128 13.1809 11.5333 13.5267 11.5333C13.6958 11.5333 13.8503 11.5995 13.968 11.7172C14.2549 12.004 14.7183 12.004 15.0051 11.7172C15.292 11.4303 15.292 10.9669 15.0051 10.68C14.7918 10.4667 14.5344 10.3196 14.2622 10.2093V9.94447C14.2622 9.53991 13.9312 9.2089 13.5267 9.2089C13.1221 9.2089 12.7911 9.53991 12.7911 9.94447V10.2166C12.004 10.5182 11.4303 11.2685 11.4303 12.1659C11.4303 13.3207 12.3718 14.2622 13.5267 14.2622C13.8724 14.2622 14.1519 14.5417 14.1519 14.8875C14.1519 15.2332 13.8724 15.5127 13.5267 15.5127C13.3575 15.5127 13.203 15.4465 13.0853 15.3288C12.7985 15.0419 12.335 15.0419 12.0482 15.3288C11.7613 15.6157 11.7613 16.0791 12.0482 16.3659C12.2615 16.5793 12.5189 16.7337 12.7911 16.8367V17.1015C12.7911 17.5061 13.1221 17.8371 13.5267 17.8371C13.9312 17.8371 14.2622 17.5061 14.2622 17.1015V16.8294C15.0566 16.5278 15.623 15.7775 15.623 14.8801C15.623 13.7253 14.6815 12.7837 13.5267 12.7837Z" stroke="white" stroke-width="0.5" mask="url(#path-1-outside-1_284_98)"/>
  <path d="M30.7389 23.8687C30.452 23.5818 30.0695 23.4274 29.6723 23.4274C29.2678 23.4274 28.8853 23.5892 28.5984 23.8687L26.274 26.1931C25.1927 27.2744 25.1927 29.0324 26.274 30.1136C26.6491 30.4888 27.1052 30.7389 27.6054 30.8566L27.5318 31.2243C27.4288 31.7466 27.5612 32.2689 27.9143 32.7028C28.3262 33.2104 29.0029 33.5267 29.6723 33.5267C30.3417 33.5267 31.0184 33.2104 31.4303 32.7028C31.7834 32.2689 31.9231 31.7466 31.8128 31.217L31.7393 30.8492C32.2321 30.7315 32.6955 30.4814 33.0706 30.1063C34.1519 29.025 34.1519 27.267 33.0706 26.1857L30.7462 23.8613L30.7389 23.8687ZM32.0261 29.0765C31.7393 29.3634 31.3494 29.4958 30.9448 29.4443C30.7095 29.4149 30.4741 29.5031 30.3123 29.6723C30.1504 29.8488 30.0842 30.0842 30.1284 30.3196L30.3711 31.5112C30.3711 31.5112 30.3932 31.6363 30.2902 31.7687C30.0107 32.107 29.3266 32.107 29.0471 31.7687C28.9368 31.6363 28.9588 31.5406 28.9662 31.5112L29.2089 30.3196C29.253 30.0842 29.1868 29.8488 29.025 29.6723C28.8853 29.5178 28.6867 29.4369 28.4881 29.4369C28.1644 29.4369 27.7525 29.5178 27.3112 29.0691C27.0684 28.8191 26.9287 28.4954 26.9287 28.1497C26.9287 27.804 27.0684 27.4803 27.3112 27.2302L29.6355 24.9058C29.6355 24.9058 29.6723 24.9058 29.7017 24.9058L32.0261 27.2302C32.5337 27.7378 32.5337 28.5616 32.0261 29.0691V29.0765Z" stroke="white" stroke-width="0.5" mask="url(#path-1-outside-1_284_98)"/>
  <path d="M22.3314 13.5193C22.3314 8.66459 18.3814 4.7146 13.5267 4.7146C8.67194 4.7146 4.72196 8.66459 4.72196 13.5193C4.72196 18.374 8.67194 22.324 13.5267 22.324C18.3814 22.324 22.3314 18.374 22.3314 13.5193ZM13.5267 20.8529C9.48106 20.8529 6.19308 17.5649 6.19308 13.5193C6.19308 9.47371 9.48106 6.18573 13.5267 6.18573C17.5723 6.18573 20.8602 9.47371 20.8602 13.5193C20.8602 17.5649 17.5723 20.8529 13.5267 20.8529Z" stroke="white" stroke-width="0.5" mask="url(#path-1-outside-1_284_98)"/>
  <path d="M29.665 15.954C28.2306 15.954 26.8772 16.2483 25.5899 16.6896C25.8621 15.6524 26.0533 14.6006 26.0533 13.5267C26.0533 6.61971 20.4336 1 13.5267 1C6.61971 1 1 6.61236 1 13.5193C1 20.4263 6.61971 26.046 13.5267 26.046C14.9022 26.046 16.2777 25.8032 17.5796 25.3619C17.3222 26.3623 17.1383 27.3921 17.1383 28.4733C17.1383 35.3803 22.758 41 29.665 41C36.5719 41 42.1916 35.3803 42.1916 28.4733C42.1916 21.5664 36.5719 15.9467 29.665 15.9467V15.954ZM37.9474 35.726L35.726 33.5046C36.7117 32.313 37.3516 30.8419 37.4987 29.2163H40.6396C40.4704 31.7025 39.4921 33.9533 37.9401 35.726H37.9474ZM21.8238 29.2163C21.9783 30.8419 22.6109 32.313 23.5965 33.5046L21.3751 35.726C19.8231 33.9533 18.8448 31.7098 18.6756 29.2163H21.8238ZM21.3825 21.2354L23.6039 23.4568C22.6182 24.6484 21.9783 26.1195 21.8312 27.7451H18.6903C18.8669 25.1265 19.7495 23.1037 21.3899 21.2354H21.3825ZM28.9294 20.6396C27.3038 20.794 25.8327 21.4266 24.641 22.4123L22.4196 20.1909C24.1924 18.6388 26.4358 17.6605 28.9294 17.4914V20.6396ZM29.665 34.9242C26.1122 34.9242 23.2214 32.0335 23.2214 28.4807C23.2214 24.9279 26.1122 22.0371 29.665 22.0371C33.2177 22.0371 36.1085 24.9279 36.1085 28.4807C36.1085 32.0335 33.2177 34.9242 29.665 34.9242ZM34.6889 22.4196C33.4972 21.434 32.0261 20.794 30.4005 20.6469V17.5061C32.8867 17.6752 35.1376 18.6536 36.9103 20.2056L34.6889 22.427V22.4196ZM24.641 34.5491C25.8327 35.5348 27.3038 36.1747 28.9294 36.3218V39.4627C26.4432 39.2935 24.1924 38.3152 22.4196 36.7631L24.641 34.5417V34.5491ZM30.4005 36.3218C32.0261 36.1673 33.4972 35.5348 34.6889 34.5491L36.9103 36.7705C35.1376 38.3225 32.8941 39.3008 30.4005 39.47V36.3218ZM37.5061 27.7451C37.3516 26.1195 36.719 24.6484 35.7334 23.4568L37.9548 21.2354C39.5068 23.0081 40.4851 25.2516 40.6543 27.7451H37.5061ZM13.5267 24.5822C7.42883 24.5822 2.47113 19.6245 2.47113 13.5267C2.47113 7.42883 7.42883 2.46377 13.5267 2.46377C19.6245 2.46377 24.5822 7.42148 24.5822 13.5193C24.5822 14.8727 24.3248 16.1894 23.8393 17.4546C21.2427 18.8301 19.367 20.7352 18.1607 23.5451C16.7117 24.2144 15.1228 24.5748 13.5267 24.5748V24.5822Z" stroke="white" stroke-width="0.5" mask="url(#path-1-outside-1_284_98)"/>
  <path d="M28.694 5.96506C28.2894 5.96506 27.9584 6.29606 27.9584 6.70063C27.9584 7.10519 28.2894 7.43619 28.694 7.43619H30.4888C32.3792 7.43619 33.9165 8.97352 33.9165 10.8639V11.1214L33.6664 10.8713C33.3795 10.5844 32.9161 10.5844 32.6293 10.8713C32.3424 11.1581 32.3424 11.6216 32.6293 11.9084L34.1372 13.4163C34.424 13.7032 34.8875 13.7032 35.1817 13.4163L36.6896 11.9084C36.9765 11.6216 36.9765 11.1581 36.6896 10.8713C36.4027 10.5844 35.9393 10.5844 35.6524 10.8713L35.4024 11.1214V10.8639C35.4024 8.1644 33.203 5.96506 30.5035 5.96506H28.694Z" stroke="white" stroke-width="0.5" mask="url(#path-1-outside-1_284_98)"/>
  <path d="M9.52519 31.1361C9.6723 31.2832 9.85619 31.3494 10.0474 31.3494C10.2387 31.3494 10.4226 31.2758 10.5697 31.1361C10.8566 30.8492 10.8566 30.3858 10.5697 30.0989L9.06178 28.591C8.78227 28.3115 8.2968 28.3115 8.01728 28.591L6.50937 30.0989C6.2225 30.3858 6.2225 30.8492 6.50937 31.1361C6.79625 31.4229 7.25965 31.4229 7.54652 31.1361L7.79661 30.886V31.1434C7.79661 33.843 9.99595 36.0423 12.6955 36.0423H14.4903C14.8948 36.0423 15.2258 35.7113 15.2258 35.3067C15.2258 34.9022 14.8948 34.5712 14.4903 34.5712H12.6955C10.8051 34.5712 9.26774 33.0338 9.26774 31.1434V30.886L9.51783 31.1361H9.52519Z" stroke="white" stroke-width="0.5" mask="url(#path-1-outside-1_284_98)"/>
</svg>